<?xml version="1.0" encoding="UTF-8"?>
<svg id="Layer_2" xmlns="http://www.w3.org/2000/svg" version="1.1" viewBox="0 0 300 300">
  <!-- Generator: Adobe Illustrator 29.2.1, SVG Export Plug-In . SVG Version: 2.1.0 Build 116)  -->
  <defs>
    <style>
      .st0 {
        fill: #f4f4ef;
      }
    </style>
  </defs>
  <g id="Layer_1-2">
    <g>
      <path class="st0" d="M224.6,143.2c-23.7-7.2-50.8-28.4-62.6-50.3-7.3-13.6-9.2-28.9-11.2-43.9l-.3,2.6-1-.5c-1.2,10.6-3.1,22-7.3,31.9-9.2,21.8-32,46.2-53.5,56.3-13.7,6.4-28.8,9.2-43.8,10.3,12.7,2.8,25.7,5,37.6,10.1,29.2,12.6,54.7,38.4,62.7,69.6,1.9,7.2,2.8,14.5,3.9,21.9,4.5-35.4,24.6-66.6,54.9-85.3,15.7-9.7,31.2-12.7,49.1-16.1.8-.1,1.6,0,1.8-1-10.2-.6-20.7-2.6-30.4-5.5h0ZM146.9,88.7c1-2.1,1.4-5.1,3.1-6.7,2.8,7.7,6.6,15.1,11.3,21.9-7.6.7-15.5.7-23,0,3.4-4.9,6.3-10,8.7-15.3h0ZM150.3,222.2c-3.2-9-7.6-17.4-13-25.3,8.4-.9,16.9-.9,25.5,0-5.4,7.8-9.6,16.2-12.5,25.2h0ZM211.8,155.1c-17,8.8-33.2,21.3-45.3,36.8-11.1-1.6-22.4-2-33.5-.7-14.2-18.2-33.6-32.3-55-40.6,5.1-1.6,10.1-3.6,14.9-6.1,15.3-8.2,29.8-20.2,40.9-34.4,10.6,1.4,21.6,1.6,32.2.4,14.8,18.7,35.9,32.8,58.5,39.3l-12.8,5.3h0Z"/>
      <path class="st0" d="M122.4,156.1c1.9,8.5,10.8,16,19.5,16.8.7,0,6.6.1,4.5-1.3-1.4-1-6.2-1.8-8.2-2.8-7.5-3.4-10-7.9-9.6-16.1,1.2-25,33.1-27.8,40-6.3,5.5,17.2-12.7,29.3-27.9,29.7.2.9,1.1,1.3,1.9,1.6,6.5,2.3,11.9-.2,18.1-2.1l-8.9,3.7c23.8-.7,34.5-27.3,19.4-45.4-17.9-21.4-54.8-5.9-48.6,22.3h0Z"/>
    </g>
  </g>
</svg>