<?xml version="1.0" encoding="UTF-8"?>
<svg id="Layer_2" data-name="Layer 2" xmlns="http://www.w3.org/2000/svg" viewBox="0 0 265.23 89.81">
  <defs>
    <style>
      .cls-1 {
        fill: #2b3a2e;
      }
    </style>
  </defs>
  <g id="Layer_1-2" data-name="Layer 1">
    <g>
      <path class="cls-1" d="M117.72.73c-.62,0-1.11.17-1.46.52-.35.34-.61.9-.78,1.66,0,.02-.04.03-.1.03s-.08-.01-.08-.04c.02-.13.04-.32.07-.55.02-.24.05-.5.07-.78.02-.28.04-.55.05-.81.01-.26.02-.48.02-.65,0-.05.03-.08.09-.08s.09.03.09.08c0,.1.05.17.15.22.1.04.21.08.34.09s.24.02.33.02c.86.03,1.87.04,3.01.04.7,0,1.26,0,1.68-.02.42-.01.82-.02,1.21-.02.34,0,.6-.02.79-.07.18-.04.3-.15.35-.31,0-.04.04-.06.1-.06s.08.02.08.06c-.02.15-.04.36-.05.63-.02.27-.03.55-.04.84-.02.29-.03.56-.04.81s-.01.43-.01.55c0,.03-.03.04-.08.04s-.08-.01-.08-.04c-.07-.78-.27-1.33-.6-1.67s-.82-.5-1.47-.5c-.35,0-.61.02-.79.07-.18.04-.29.13-.35.26-.05.13-.08.33-.08.62v6.92c0,.29.03.51.1.66.06.15.19.25.39.3s.5.08.91.08c.02,0,.03.03.03.09s0,.09-.03.09c-.27,0-.57,0-.91-.01s-.7-.02-1.1-.02-.74,0-1.07.02-.64.01-.92.01c-.03,0-.04-.03-.04-.09s.02-.09.04-.09c.39,0,.69-.03.89-.08s.34-.15.41-.3c.07-.15.1-.37.1-.66V1.65c0-.27-.03-.47-.09-.61s-.18-.22-.36-.25c-.18-.04-.44-.05-.78-.05Z"/>
      <path class="cls-1" d="M129.57,8.59V1.65c0-.29-.03-.51-.09-.65-.06-.14-.18-.25-.36-.3-.18-.05-.45-.08-.79-.08-.03,0-.04-.03-.04-.09s.01-.09.04-.09c.25,0,.53,0,.84.02.31.01.63.02.97.02.4,0,.76,0,1.07-.02.32-.01.6-.02.85-.02.02,0,.03.03.03.09s0,.09-.03.09c-.37,0-.65.03-.83.09-.19.06-.31.17-.38.32-.07.15-.1.37-.1.66v6.92c0,.29.03.51.09.66.06.15.18.25.38.3.19.05.47.08.84.08.02,0,.03.03.03.09s0,.09-.03.09c-.26,0-.54,0-.85-.01-.31,0-.67-.02-1.07-.02-.34,0-.67,0-.99.02-.32,0-.6.01-.85.01-.02,0-.03-.03-.03-.09s0-.09.03-.09c.36,0,.63-.03.82-.08.18-.05.31-.15.37-.3.06-.15.09-.37.09-.66ZM130.13,5.1v-.34h6.63v.34h-6.63ZM136.23,1.68c0-.29-.03-.51-.09-.66-.06-.15-.18-.25-.36-.32-.18-.06-.46-.09-.84-.09-.03,0-.04-.03-.04-.09s.02-.09.04-.09c.24,0,.52,0,.83.02.31.01.67.02,1.06.02.34,0,.67,0,1-.02s.61-.02.85-.02c.03,0,.04.03.04.09s-.01.09-.04.09c-.35,0-.62.03-.8.08-.18.05-.31.16-.37.3-.06.15-.09.36-.09.65v6.95c0,.29.03.51.09.66.06.15.18.25.37.3.19.05.45.08.8.08.03,0,.04.03.04.09s-.01.09-.04.09c-.24,0-.52,0-.85-.01s-.66-.02-1-.02c-.39,0-.74,0-1.06.02-.32,0-.59.01-.83.01-.03,0-.04-.03-.04-.09s.02-.09.04-.09c.38,0,.66-.03.84-.08.18-.05.3-.15.36-.3.06-.15.09-.37.09-.66V1.68Z"/>
      <path class="cls-1" d="M149.76,9.81h-6.39s-.04-.03-.04-.09.02-.09.04-.09c.34,0,.6-.03.77-.08.17-.05.29-.15.35-.3.06-.15.09-.37.09-.66V1.65c0-.29-.03-.51-.09-.65-.06-.14-.18-.25-.35-.3-.18-.05-.43-.08-.77-.08-.03,0-.04-.03-.04-.09s.02-.09.04-.09h6.12c.1,0,.15.04.15.13l.03,1.89s-.03.05-.08.05c-.05,0-.09,0-.1-.04-.07-.55-.26-.97-.58-1.25-.32-.28-.74-.43-1.26-.43h-.76c-.3,0-.53.02-.69.07-.16.05-.27.14-.33.28-.06.13-.09.32-.09.56v6.82c0,.24.03.43.08.56.05.14.16.23.31.29.15.06.36.08.63.08h.99c.57,0,1.04-.17,1.41-.5s.62-.81.77-1.43c0-.03.03-.04.09-.03.06,0,.09.03.09.06-.04.27-.08.59-.11.97-.03.38-.04.73-.04,1.05,0,.15-.08.22-.22.22ZM148.92,6.36c0-.43-.12-.75-.37-.95s-.64-.31-1.18-.31h-2.18v-.34h2.22c.51,0,.88-.09,1.12-.26.24-.17.36-.45.36-.82,0-.02.03-.03.08-.03s.08,0,.08.03c0,.31,0,.55,0,.72,0,.17,0,.35,0,.54,0,.23,0,.46.02.69.01.23.02.47.02.73,0,.02-.03.03-.09.03s-.09,0-.09-.03Z"/>
      <path class="cls-1" d="M17.16,57.81H.12c-.08,0-.12-.08-.12-.24s.04-.24.12-.24c.91,0,1.59-.07,2.06-.2.47-.13.78-.4.94-.8.16-.4.24-.99.24-1.76v-18.52c0-.77-.08-1.35-.24-1.74-.16-.39-.47-.65-.94-.8-.47-.15-1.15-.22-2.06-.22-.08,0-.12-.08-.12-.24s.04-.24.12-.24h16.32c.27,0,.4.12.4.36l.08,5.04c0,.08-.07.13-.22.14-.15.01-.23-.02-.26-.1-.19-1.47-.71-2.58-1.56-3.34-.85-.76-1.97-1.14-3.36-1.14h-2.04c-.8,0-1.41.07-1.84.2-.43.13-.72.38-.88.74-.16.36-.24.86-.24,1.5v18.2c0,.64.07,1.14.22,1.5.15.36.42.61.82.76.4.15.96.22,1.68.22h2.64c1.52,0,2.77-.45,3.76-1.34.99-.89,1.67-2.17,2.04-3.82,0-.08.08-.11.24-.08.16.03.24.08.24.16-.11.72-.2,1.59-.28,2.6-.08,1.01-.12,1.95-.12,2.8,0,.4-.2.6-.6.6ZM14.92,48.61c0-1.15-.33-1.99-.98-2.54-.65-.55-1.7-.82-3.14-.82h-5.8v-.92h5.92c1.36,0,2.36-.23,3-.7s.96-1.19.96-2.18c0-.05.07-.08.22-.08s.22.03.22.08c0,.83,0,1.47-.02,1.92-.01.45-.02.93-.02,1.44,0,.61.02,1.23.06,1.84.04.61.06,1.27.06,1.96,0,.05-.08.08-.24.08s-.24-.03-.24-.08Z"/>
      <path class="cls-1" d="M54.56,58.33c0,.05-.06.09-.18.1-.12.01-.21,0-.26-.02l-18.84-22.32c-.93-1.09-1.74-1.83-2.42-2.22-.68-.39-1.35-.58-2.02-.58-.05,0-.08-.08-.08-.24s.03-.24.08-.24c.51,0,1.01.01,1.52.04.51.03.97.04,1.4.04.64,0,1.23-.01,1.76-.04.53-.03.93-.04,1.2-.04.35,0,.6.15.76.46s.55.85,1.16,1.62l15.6,18.8.32,4.64ZM34.32,53.25v-19.52l1.04.08v19.44c0,1.39.25,2.41.76,3.08.51.67,1.31,1,2.4,1,.05,0,.08.08.08.24s-.03.24-.08.24c-.56,0-1.13-.01-1.7-.04-.57-.03-1.22-.04-1.94-.04s-1.37.01-2.04.04c-.67.03-1.29.04-1.88.04-.05,0-.08-.08-.08-.24s.03-.24.08-.24c1.17,0,2.03-.33,2.56-1,.53-.67.8-1.69.8-3.08ZM54.56,37.41v20.92l-1-1.24v-19.68c0-1.39-.25-2.42-.74-3.1-.49-.68-1.29-1.02-2.38-1.02-.05,0-.08-.08-.08-.24s.03-.24.08-.24c.56,0,1.13.02,1.72.06.59.04,1.23.06,1.92.06s1.32-.02,1.96-.06,1.24-.06,1.8-.06c.05,0,.08.08.08.24s-.03.24-.08.24c-1.12,0-1.95.34-2.48,1.02-.53.68-.8,1.71-.8,3.1Z"/>
      <path class="cls-1" d="M84.64,32.37c1.01,0,1.95.05,2.82.14.87.09,1.68.25,2.44.46.76.21,1.49.49,2.18.84.21.08.34.17.38.26.04.09.07.3.1.62l.52,5.04c0,.05-.07.1-.22.14-.15.04-.23,0-.26-.1-.67-2.21-1.68-3.89-3.04-5.02s-3.09-1.7-5.2-1.7-4,.49-5.6,1.48c-1.6.99-2.85,2.38-3.76,4.18-.91,1.8-1.36,3.93-1.36,6.38,0,1.81.28,3.48.84,5,.56,1.52,1.34,2.85,2.34,3.98,1,1.13,2.16,2.01,3.48,2.62,1.32.61,2.74.92,4.26.92,2.13,0,3.86-.53,5.18-1.6,1.32-1.07,2.38-2.69,3.18-4.88.05-.08.15-.11.28-.08.13.03.2.08.2.16l-.44,4.56c-.03.32-.07.52-.14.6-.07.08-.19.17-.38.28-1.36.61-2.66,1.05-3.9,1.3-1.24.25-2.57.38-3.98.38-2.83,0-5.34-.55-7.54-1.66s-3.93-2.64-5.18-4.6-1.88-4.23-1.88-6.82c0-1.92.37-3.67,1.1-5.24.73-1.57,1.77-2.93,3.1-4.08,1.33-1.15,2.89-2.03,4.66-2.64s3.71-.92,5.82-.92Z"/>
      <path class="cls-1" d="M119.36,58.29c-1.92,0-3.66-.34-5.22-1.02-1.56-.68-2.89-1.62-4-2.82-1.11-1.2-1.96-2.58-2.56-4.14s-.9-3.22-.9-4.98c0-2.16.42-4.05,1.26-5.68.84-1.63,1.95-2.98,3.34-4.06,1.39-1.08,2.91-1.89,4.56-2.42,1.65-.53,3.29-.8,4.92-.8,1.97,0,3.74.35,5.3,1.06,1.56.71,2.89,1.66,3.98,2.86,1.09,1.2,1.93,2.56,2.5,4.08.57,1.52.86,3.08.86,4.68,0,1.87-.37,3.6-1.12,5.2-.75,1.6-1.77,3-3.06,4.2-1.29,1.2-2.79,2.14-4.48,2.82s-3.49,1.02-5.38,1.02ZM120.76,57.41c1.68,0,3.21-.43,4.58-1.3,1.37-.87,2.45-2.13,3.24-3.8.79-1.67,1.18-3.71,1.18-6.14s-.43-4.69-1.3-6.62c-.87-1.93-2.09-3.45-3.68-4.56-1.59-1.11-3.47-1.66-5.66-1.66-2.8,0-4.97.95-6.5,2.84-1.53,1.89-2.3,4.48-2.3,7.76,0,1.89.25,3.66.74,5.3.49,1.64,1.21,3.07,2.14,4.3.93,1.23,2.04,2.18,3.32,2.86,1.28.68,2.69,1.02,4.24,1.02Z"/>
      <path class="cls-1" d="M150.88,37.29c0,1.07.27,1.99.8,2.76.53.77,1.23,1.46,2.08,2.06.85.6,1.76,1.19,2.72,1.78.99.59,1.94,1.21,2.86,1.88.92.67,1.68,1.45,2.28,2.34.6.89.9,1.98.9,3.26s-.34,2.48-1.02,3.52c-.68,1.04-1.64,1.87-2.88,2.48-1.24.61-2.73.92-4.46.92-.69,0-1.39-.06-2.1-.18-.71-.12-1.38-.29-2.02-.5-.64-.21-1.23-.48-1.76-.8-.11-.08-.19-.17-.26-.28-.07-.11-.1-.27-.1-.48l-.4-5.72c-.03-.13.03-.21.18-.22.15-.01.23.03.26.14.24.83.56,1.67.96,2.52.4.85.88,1.63,1.44,2.34.56.71,1.23,1.29,2.02,1.74.79.45,1.7.68,2.74.68.72,0,1.42-.13,2.1-.4s1.23-.71,1.66-1.34c.43-.63.64-1.5.64-2.62,0-1.28-.28-2.36-.84-3.24s-1.28-1.64-2.16-2.28c-.88-.64-1.81-1.25-2.8-1.84-.93-.59-1.83-1.2-2.7-1.84-.87-.64-1.57-1.38-2.1-2.22-.53-.84-.8-1.86-.8-3.06,0-1.44.38-2.63,1.14-3.56s1.73-1.63,2.92-2.08,2.41-.68,3.66-.68c.83,0,1.67.08,2.52.24s1.63.39,2.32.68c.24.11.4.22.48.34.08.12.12.25.12.38l.2,5c0,.08-.07.13-.2.16s-.23-.01-.28-.12c-.08-.45-.25-1.02-.52-1.7s-.63-1.35-1.08-2-1.03-1.2-1.74-1.64c-.71-.44-1.57-.66-2.58-.66-.93,0-1.71.19-2.32.58-.61.39-1.08.89-1.4,1.52-.32.63-.48,1.34-.48,2.14Z"/>
      <path class="cls-1" d="M178.8,53.25l.4-19.52,1,.08-.4,19.44c-.03,1.39.22,2.41.74,3.08.52.67,1.39,1,2.62,1,.08,0,.12.08.12.24s-.04.24-.12.24c-.59,0-1.19-.01-1.8-.04-.61-.03-1.31-.04-2.08-.04-.72,0-1.4.01-2.04.04-.64.03-1.24.04-1.8.04-.05,0-.08-.08-.08-.24s.03-.24.08-.24c1.12,0,1.95-.33,2.5-1,.55-.67.83-1.69.86-3.08ZM206.8,57.33c.05,0,.08.08.08.24s-.03.24-.08.24c-.67,0-1.41-.01-2.24-.04-.83-.03-1.71-.04-2.64-.04-.88,0-1.71.01-2.48.04-.77.03-1.47.04-2.08.04-.08,0-.12-.08-.12-.24s.04-.24.12-.24c1.31,0,2.15-.17,2.52-.52.37-.35.52-1.09.44-2.24l-.8-18.84,1.56-2.24-10.36,24.04c-.03.11-.13.16-.3.16s-.29-.05-.34-.16l-10.44-21.4c-.93-1.89-2.24-2.84-3.92-2.84-.05,0-.08-.08-.08-.24s.03-.24.08-.24c.48,0,.98.01,1.5.04.52.03.97.04,1.34.04.51,0,.97-.01,1.38-.04.41-.03.73-.04.94-.04.37,0,.67.13.88.38.21.25.53.82.96,1.7l9.08,18.44-1.48,2.56,9.64-22.08c.13-.32.3-.57.5-.74.2-.17.43-.26.7-.26.19,0,.42.01.7.04.28.03.61.04.98.04.75,0,1.37-.01,1.88-.04s1.03-.04,1.56-.04c.05,0,.08.08.08.24s-.03.24-.08.24c-1.28,0-2.21.21-2.8.62-.59.41-.87,1.17-.84,2.26l.84,18.4c.05.77.16,1.36.32,1.76.16.4.47.67.92.8s1.15.2,2.08.2Z"/>
      <path class="cls-1" d="M225.4,54.57c0,.77.07,1.36.22,1.76.15.4.45.67.92.8.47.13,1.17.2,2.1.2.05,0,.08.08.08.24s-.03.24-.08.24c-.67,0-1.41-.01-2.22-.04-.81-.03-1.7-.04-2.66-.04s-1.81.01-2.64.04c-.83.03-1.57.04-2.24.04-.05,0-.08-.08-.08-.24s.04-.24.12-.24c.91,0,1.6-.07,2.08-.2.48-.13.8-.4.96-.8.16-.4.24-.99.24-1.76v-18.52c0-.77-.08-1.35-.24-1.74s-.48-.65-.96-.8c-.48-.15-1.19-.22-2.12-.22-.05,0-.08-.08-.08-.24s.03-.24.08-.24c.67,0,1.41.02,2.24.06.83.04,1.71.06,2.64.06s1.85-.02,2.68-.06c.83-.04,1.56-.06,2.2-.06.05,0,.08.08.08.24s-.03.24-.08.24c-.93,0-1.63.08-2.08.24-.45.16-.76.44-.92.84-.16.4-.24.99-.24,1.76v18.44Z"/>
      <path class="cls-1" d="M256.47,32.37c1.01,0,1.95.05,2.82.14.87.09,1.68.25,2.44.46.76.21,1.49.49,2.18.84.21.08.34.17.38.26.04.09.07.3.1.62l.52,5.04c0,.05-.07.1-.22.14-.15.04-.23,0-.26-.1-.67-2.21-1.68-3.89-3.04-5.02-1.36-1.13-3.09-1.7-5.2-1.7s-4,.49-5.6,1.48c-1.6.99-2.85,2.38-3.76,4.18-.91,1.8-1.36,3.93-1.36,6.38,0,1.81.28,3.48.84,5,.56,1.52,1.34,2.85,2.34,3.98,1,1.13,2.16,2.01,3.48,2.62,1.32.61,2.74.92,4.26.92,2.13,0,3.86-.53,5.18-1.6,1.32-1.07,2.38-2.69,3.18-4.88.05-.08.15-.11.28-.08.13.03.2.08.2.16l-.44,4.56c-.03.32-.07.52-.14.6-.07.08-.19.17-.38.28-1.36.61-2.66,1.05-3.9,1.3-1.24.25-2.57.38-3.98.38-2.83,0-5.34-.55-7.54-1.66-2.2-1.11-3.93-2.64-5.18-4.6-1.25-1.96-1.88-4.23-1.88-6.82,0-1.92.37-3.67,1.1-5.24s1.77-2.93,3.1-4.08c1.33-1.15,2.89-2.03,4.66-2.64,1.77-.61,3.71-.92,5.82-.92Z"/>
      <path class="cls-1" d="M110.66,88.53c0,.3.04.53.11.68.08.16.23.26.47.32.24.06.6.09,1.08.09.03,0,.04.03.04.09s-.02.09-.04.09c-.32,0-.67,0-1.04-.01s-.78-.02-1.22-.02c-.33,0-.65,0-.97.02s-.6.01-.85.01c-.02,0-.03-.03-.03-.09s0-.09.03-.09c.35,0,.61-.03.79-.08.17-.05.29-.15.34-.3.06-.15.08-.37.08-.66v-6.95c0-.29-.03-.51-.08-.65-.05-.14-.17-.25-.34-.3-.18-.05-.44-.08-.79-.08-.02,0-.03-.03-.03-.09s0-.09.03-.09c.25,0,.53,0,.84.02s.63.02.96.02c.26,0,.58-.01.95-.04s.75-.04,1.13-.04c.58,0,1.1.08,1.57.25.46.17.84.43,1.12.79s.43.83.44,1.41c0,.52-.1.97-.29,1.35-.19.38-.45.7-.77.95s-.69.43-1.08.55c-.4.12-.78.18-1.16.18-.12,0-.24,0-.37-.02-.12,0-.24-.03-.35-.06-.04,0-.05-.05-.04-.11.01-.07.04-.09.07-.08.09.02.18.04.28.04.1.01.18.02.25.02.38,0,.73-.09,1.05-.27.32-.18.58-.46.78-.83.2-.38.3-.84.3-1.4s-.09-1-.28-1.37-.44-.66-.77-.86c-.33-.2-.71-.3-1.14-.3-.28,0-.5.02-.65.06-.16.04-.26.14-.32.29-.06.15-.09.38-.09.69v6.85Z"/>
      <path class="cls-1" d="M129.92,89.63c.05,0,.08.03.08.09s-.02.09-.08.09c-.29,0-.59,0-.89-.03-.31-.02-.6-.03-.89-.03-.32,0-.6,0-.83.03-.24.02-.5.03-.79.03-.04,0-.06-.03-.06-.09s.02-.09.06-.09c.49,0,.79-.08.9-.23.11-.16.05-.46-.17-.92l-3.22-6.71.48-.72-2.92,6.78c-.26.61-.27,1.06-.04,1.36.23.29.66.44,1.29.44.05,0,.08.03.08.09s-.03.09-.08.09c-.3,0-.58,0-.83-.03-.25-.02-.56-.03-.94-.03s-.67,0-.89.03c-.23.02-.5.03-.82.03-.04,0-.06-.03-.06-.09s.02-.09.06-.09c.27,0,.5-.05.71-.16.2-.1.39-.3.58-.58.18-.28.39-.68.61-1.2l3.2-7.37s.04-.05.1-.05c.06,0,.09.01.11.05l3.6,7.43c.24.49.45.87.62,1.15.17.27.35.46.52.57.17.11.35.16.54.16ZM122.16,85.89l.18-.33h4.08l.1.33h-4.37Z"/>
      <path class="cls-1" d="M136.44,80.73c-.62,0-1.11.17-1.46.52-.35.34-.61.9-.78,1.66,0,.02-.04.03-.1.03s-.08-.01-.08-.04c.02-.13.04-.32.07-.55.02-.24.05-.5.07-.78.02-.28.04-.55.05-.81.01-.26.02-.48.02-.65,0-.05.03-.08.09-.08s.09.03.09.08c0,.1.05.17.15.22.1.04.21.08.34.09s.24.02.33.02c.86.03,1.87.04,3.01.04.7,0,1.26,0,1.68-.02.42-.01.82-.02,1.21-.02.34,0,.6-.02.79-.07.18-.04.3-.15.35-.31,0-.04.04-.06.1-.06s.08.02.08.06c-.02.15-.04.36-.05.63-.02.27-.03.55-.04.84-.02.29-.03.56-.04.81s-.01.43-.01.55c0,.03-.03.04-.08.04s-.08-.01-.08-.04c-.07-.78-.27-1.33-.6-1.67s-.82-.5-1.47-.5c-.35,0-.61.02-.79.07-.18.04-.29.13-.35.26-.05.13-.08.33-.08.62v6.92c0,.29.03.51.1.66.06.15.19.25.39.3s.5.08.91.08c.02,0,.03.03.03.09s0,.09-.03.09c-.27,0-.57,0-.91-.01s-.7-.02-1.1-.02-.74,0-1.07.02-.64.01-.92.01c-.03,0-.04-.03-.04-.09s.02-.09.04-.09c.39,0,.69-.03.89-.08s.34-.15.41-.3c.07-.15.1-.37.1-.66v-6.95c0-.27-.03-.47-.09-.61s-.18-.22-.36-.25c-.18-.04-.44-.05-.78-.05Z"/>
      <path class="cls-1" d="M148.29,88.59v-6.95c0-.29-.03-.51-.09-.65-.06-.14-.18-.25-.36-.3-.18-.05-.45-.08-.79-.08-.03,0-.04-.03-.04-.09s.01-.09.04-.09c.25,0,.53,0,.84.02.31.01.63.02.97.02.4,0,.76,0,1.07-.02.32-.01.6-.02.85-.02.02,0,.03.03.03.09s0,.09-.03.09c-.37,0-.65.03-.83.09-.19.06-.31.17-.38.32-.07.15-.1.37-.1.66v6.92c0,.29.03.51.09.66.06.15.18.25.38.3.19.05.47.08.84.08.02,0,.03.03.03.09s0,.09-.03.09c-.26,0-.54,0-.85-.01-.31,0-.67-.02-1.07-.02-.34,0-.67,0-.99.02-.32,0-.6.01-.85.01-.02,0-.03-.03-.03-.09s0-.09.03-.09c.36,0,.63-.03.82-.08.18-.05.31-.15.37-.3.06-.15.09-.37.09-.66ZM148.85,85.1v-.34h6.63v.34h-6.63ZM154.95,81.68c0-.29-.03-.51-.09-.66-.06-.15-.18-.25-.36-.32-.18-.06-.46-.09-.84-.09-.03,0-.04-.03-.04-.09s.02-.09.04-.09c.24,0,.52,0,.83.02.31.01.67.02,1.06.02.34,0,.67,0,1-.02s.61-.02.85-.02c.03,0,.04.03.04.09s-.01.09-.04.09c-.35,0-.62.03-.8.08-.18.05-.31.16-.37.3-.06.15-.09.36-.09.65v6.95c0,.29.03.51.09.66.06.15.18.25.37.3.19.05.45.08.8.08.03,0,.04.03.04.09s-.01.09-.04.09c-.24,0-.52,0-.85-.01s-.66-.02-1-.02c-.39,0-.74,0-1.06.02-.32,0-.59.01-.83.01-.03,0-.04-.03-.04-.09s.02-.09.04-.09c.38,0,.66-.03.84-.08.18-.05.3-.15.36-.3.06-.15.09-.37.09-.66v-6.92Z"/>
    </g>
  </g>
</svg>