<?xml version="1.0" encoding="UTF-8"?>
<svg id="Layer_2" data-name="Layer 2" xmlns="http://www.w3.org/2000/svg" viewBox="0 0 390.83 26.07">
  <defs>
    <style>
      .cls-1 {
        fill: #2b3a2e;
      }
    </style>
  </defs>
  <g id="Layer_1-2" data-name="Layer 1">
    <g>
      <g>
        <path class="cls-1" d="M2.75,8.28c-.71,0-1.26.2-1.66.59-.4.39-.7,1.02-.89,1.89-.01.02-.05.03-.11.03s-.09-.02-.09-.05c.02-.15.05-.36.08-.63.03-.27.05-.57.08-.89.02-.32.04-.63.06-.92.02-.3.03-.54.03-.74,0-.06.03-.09.1-.09s.1.03.1.09c0,.11.06.2.17.25.11.05.24.09.39.1s.27.03.38.03c.98.03,2.13.05,3.44.05.8,0,1.44,0,1.92-.03.48-.02.94-.03,1.39-.03.39,0,.69-.03.9-.08.21-.05.34-.17.4-.35.01-.05.05-.07.11-.07s.09.02.09.07c-.02.17-.04.41-.06.72-.02.31-.03.63-.05.96-.02.33-.03.64-.04.92-.01.29-.02.5-.02.63,0,.03-.03.05-.09.05s-.09-.02-.09-.05c-.08-.89-.31-1.52-.68-1.9-.38-.38-.94-.56-1.68-.56-.4,0-.7.03-.9.08-.2.05-.33.15-.39.3-.06.15-.09.38-.09.7v7.89c0,.33.04.58.11.75s.22.28.44.34c.22.06.57.09,1.03.09.02,0,.03.03.03.1s-.01.1-.03.1c-.31,0-.65,0-1.03-.02-.38-.01-.8-.02-1.26-.02s-.84,0-1.22.02c-.38.01-.73.02-1.05.02-.03,0-.05-.03-.05-.1s.02-.1.05-.1c.44,0,.78-.03,1.02-.09.23-.06.39-.17.47-.34.08-.17.12-.42.12-.75v-7.92c0-.31-.03-.54-.1-.69-.07-.15-.21-.25-.41-.29-.21-.04-.5-.06-.89-.06Z"/>
        <path class="cls-1" d="M16.27,17.24v-7.92c0-.33-.03-.58-.1-.74-.07-.17-.21-.28-.41-.34-.21-.06-.51-.09-.91-.09-.03,0-.05-.03-.05-.1s.02-.1.05-.1c.28,0,.6,0,.96.03s.72.03,1.11.03c.46,0,.86,0,1.22-.03s.68-.03.97-.03c.02,0,.03.03.03.1s-.01.1-.03.1c-.42,0-.74.03-.95.1-.21.07-.35.19-.43.36s-.11.42-.11.75v7.89c0,.33.03.58.1.75.07.17.21.28.43.34.22.06.54.09.96.09.02,0,.03.03.03.1s-.01.1-.03.1c-.3,0-.62,0-.98-.02s-.76-.02-1.21-.02c-.39,0-.76,0-1.13.02-.37.01-.69.02-.97.02-.02,0-.03-.03-.03-.1s.01-.1.03-.1c.41,0,.72-.03.93-.09.21-.06.35-.17.42-.34.07-.17.1-.42.1-.75ZM16.9,13.26v-.39h7.56v.39h-7.56ZM23.86,9.36c0-.33-.03-.58-.1-.75s-.21-.29-.41-.36c-.21-.07-.52-.1-.96-.1-.03,0-.05-.03-.05-.1s.02-.1.05-.1c.27,0,.59,0,.95.03s.76.03,1.21.03c.39,0,.77,0,1.14-.03s.69-.03.97-.03c.03,0,.05.03.05.1s-.02.1-.05.1c-.4,0-.7.03-.92.09-.21.06-.35.18-.42.34-.07.17-.1.41-.1.74v7.92c0,.33.03.58.1.75.07.17.21.28.42.34.21.06.52.09.92.09.03,0,.05.03.05.1s-.02.1-.05.1c-.27,0-.6,0-.97-.02s-.75-.02-1.14-.02c-.44,0-.85,0-1.21.02s-.68.02-.95.02c-.03,0-.05-.03-.05-.1s.02-.1.05-.1c.43,0,.75-.03.96-.09.21-.06.34-.17.41-.34s.1-.42.1-.75v-7.89Z"/>
        <path class="cls-1" d="M39.29,18.63h-7.29s-.05-.03-.05-.1.02-.1.05-.1c.39,0,.68-.03.88-.09s.33-.17.4-.34c.07-.17.1-.42.1-.75v-7.92c0-.33-.03-.58-.1-.74-.07-.17-.2-.28-.4-.34-.2-.06-.49-.09-.88-.09-.03,0-.05-.03-.05-.1s.02-.1.05-.1h6.98c.11,0,.17.05.17.15l.03,2.16s-.03.05-.09.06c-.06,0-.1,0-.11-.04-.08-.63-.3-1.1-.67-1.43s-.84-.49-1.44-.49h-.87c-.34,0-.6.03-.79.09s-.31.16-.38.32-.1.37-.1.64v7.78c0,.27.03.49.09.64.06.15.18.26.35.33.17.06.41.09.72.09h1.13c.65,0,1.19-.19,1.61-.57.42-.38.71-.93.87-1.63,0-.03.03-.05.1-.03.07.01.1.03.1.07-.05.31-.09.68-.12,1.11-.03.43-.05.83-.05,1.2,0,.17-.09.26-.26.26ZM38.33,14.69c0-.49-.14-.85-.42-1.09-.28-.23-.73-.35-1.34-.35h-2.48v-.39h2.53c.58,0,1.01-.1,1.28-.3.27-.2.41-.51.41-.93,0-.02.03-.03.09-.03s.09.01.09.03c0,.35,0,.63,0,.82,0,.19,0,.4,0,.62,0,.26,0,.52.03.79.02.26.03.54.03.84,0,.02-.03.03-.1.03s-.1-.01-.1-.03Z"/>
      </g>
      <g>
        <path class="cls-1" d="M337.49,16.95c0,.34.04.6.13.78s.27.3.54.37c.27.07.68.1,1.23.1.03,0,.05.03.05.1s-.02.1-.05.1c-.37,0-.76,0-1.19-.02s-.89-.02-1.39-.02c-.38,0-.74,0-1.1.02-.36.01-.68.02-.97.02-.02,0-.03-.03-.03-.1s.01-.1.03-.1c.4,0,.7-.03.9-.09.2-.06.33-.17.39-.34s.09-.42.09-.75v-7.92c0-.33-.03-.58-.09-.74-.06-.17-.19-.28-.39-.34-.2-.06-.5-.09-.9-.09-.02,0-.03-.03-.03-.1s.01-.1.03-.1c.29,0,.6,0,.96.03s.72.03,1.09.03c.3,0,.66-.02,1.09-.05s.86-.05,1.29-.05c.66,0,1.26.1,1.79.29.53.19.95.5,1.27.91.32.41.48.95.5,1.61,0,.59-.11,1.11-.33,1.54-.22.43-.51.79-.88,1.08-.37.28-.78.5-1.23.63-.45.14-.89.21-1.33.21-.14,0-.28,0-.42-.02-.14-.01-.28-.03-.4-.07-.05-.01-.06-.05-.04-.13.02-.07.04-.11.08-.09.1.02.21.04.32.05.11.01.2.02.28.02.43,0,.83-.1,1.2-.31.36-.21.66-.52.89-.95s.34-.96.34-1.6-.11-1.13-.32-1.56c-.21-.42-.51-.75-.88-.97s-.81-.34-1.3-.34c-.32,0-.57.02-.74.07-.18.05-.3.15-.37.32-.07.17-.1.43-.1.79v7.82Z"/>
        <path class="cls-1" d="M359.45,18.26c.06,0,.09.03.09.1s-.03.1-.09.1c-.33,0-.67-.01-1.02-.03s-.69-.03-1.02-.03c-.36,0-.68.01-.95.03s-.57.03-.9.03c-.05,0-.07-.03-.07-.1s.02-.1.07-.1c.56,0,.9-.09,1.03-.27.13-.18.06-.53-.19-1.05l-3.68-7.65.55-.82-3.34,7.73c-.3.7-.31,1.21-.05,1.55.26.34.75.5,1.47.5.06,0,.09.03.09.1s-.03.1-.09.1c-.34,0-.66-.01-.94-.03-.29-.02-.64-.03-1.08-.03s-.76.01-1.02.03-.57.03-.93.03c-.05,0-.07-.03-.07-.1s.02-.1.07-.1c.31,0,.58-.06.8-.18.23-.12.45-.34.66-.66.21-.32.44-.78.69-1.37l3.64-8.4s.05-.05.12-.06c.07,0,.11.01.12.06l4.11,8.47c.27.56.51.99.71,1.31.2.31.4.53.59.65.19.12.4.18.62.18ZM350.6,14l.21-.38h4.65l.12.38h-4.98Z"/>
        <path class="cls-1" d="M366.89,8.28c-.71,0-1.26.2-1.66.59-.4.39-.7,1.02-.89,1.89-.01.02-.05.03-.11.03s-.09-.02-.09-.05c.02-.15.05-.36.08-.63.03-.27.05-.57.08-.89.02-.32.04-.63.06-.92.02-.3.03-.54.03-.74,0-.06.03-.09.1-.09s.1.03.1.09c0,.11.06.2.17.25.11.05.25.09.39.1s.27.03.38.03c.98.03,2.13.05,3.44.05.8,0,1.44,0,1.92-.03s.94-.03,1.39-.03c.39,0,.69-.03.9-.08.21-.05.34-.17.4-.35.01-.05.05-.07.11-.07s.09.02.09.07c-.02.17-.04.41-.06.72-.02.31-.03.63-.05.96-.02.33-.03.64-.04.92-.01.29-.02.5-.02.63,0,.03-.03.05-.09.05s-.09-.02-.09-.05c-.08-.89-.31-1.52-.68-1.9-.38-.38-.94-.56-1.68-.56-.4,0-.7.03-.9.08-.2.05-.33.15-.39.3-.06.15-.09.38-.09.7v7.89c0,.33.04.58.11.75s.22.28.44.34c.22.06.57.09,1.03.09.02,0,.03.03.03.1s-.01.1-.03.1c-.31,0-.65,0-1.03-.02-.38-.01-.8-.02-1.26-.02s-.84,0-1.22.02c-.38.01-.73.02-1.05.02-.03,0-.05-.03-.05-.1s.02-.1.05-.1c.44,0,.78-.03,1.02-.09s.39-.17.47-.34c.08-.17.12-.42.12-.75v-7.92c0-.31-.03-.54-.1-.69-.07-.15-.21-.25-.41-.29-.21-.04-.5-.06-.89-.06Z"/>
        <path class="cls-1" d="M380.4,16.99v-7.92c0-.33-.03-.58-.1-.74-.07-.17-.21-.28-.41-.34-.21-.06-.51-.09-.91-.09-.03,0-.05-.03-.05-.1s.02-.1.05-.1c.28,0,.6,0,.96.03.35.02.72.03,1.11.03.46,0,.86,0,1.22-.03s.68-.03.97-.03c.02,0,.03.03.03.1s-.01.1-.03.1c-.42,0-.74.03-.95.1-.21.07-.35.19-.43.36-.07.17-.11.42-.11.75v7.89c0,.33.03.58.1.75.07.17.21.28.43.34.22.06.54.09.96.09.02,0,.03.03.03.1s-.01.1-.03.1c-.3,0-.62,0-.97-.02s-.76-.02-1.21-.02c-.39,0-.76,0-1.13.02s-.69.02-.97.02c-.02,0-.03-.03-.03-.1s.01-.1.03-.1c.41,0,.72-.03.93-.09s.35-.17.42-.34c.07-.17.1-.42.1-.75ZM381.03,13.01v-.39h7.56v.39h-7.56ZM387.99,9.11c0-.33-.03-.58-.1-.75-.07-.17-.21-.29-.41-.36-.21-.07-.52-.1-.96-.1-.03,0-.05-.03-.05-.1s.02-.1.05-.1c.27,0,.59,0,.95.03.36.02.76.03,1.21.03.39,0,.77,0,1.14-.03.37-.02.69-.03.97-.03.03,0,.05.03.05.1s-.02.1-.05.1c-.4,0-.7.03-.92.09-.21.06-.35.18-.42.34-.07.17-.1.41-.1.74v7.92c0,.33.03.58.1.75.07.17.21.28.42.34s.52.09.92.09c.03,0,.05.03.05.1s-.02.1-.05.1c-.27,0-.6,0-.97-.02-.37-.01-.75-.02-1.14-.02-.44,0-.85,0-1.21.02-.36.01-.68.02-.95.02-.03,0-.05-.03-.05-.1s.02-.1.05-.1c.43,0,.75-.03.96-.09s.34-.17.41-.34c.07-.17.1-.42.1-.75v-7.89Z"/>
      </g>
      <g>
        <path class="cls-1" d="M72.85,25.44h-17.04c-.08,0-.12-.08-.12-.24s.04-.24.12-.24c.91,0,1.59-.07,2.06-.2.47-.13.78-.4.94-.8.16-.4.24-.99.24-1.76V3.68c0-.77-.08-1.35-.24-1.74-.16-.39-.47-.65-.94-.8-.47-.15-1.15-.22-2.06-.22-.08,0-.12-.08-.12-.24s.04-.24.12-.24h16.32c.27,0,.4.12.4.36l.08,5.04c0,.08-.07.13-.22.14-.15.01-.23-.02-.26-.1-.19-1.47-.71-2.58-1.56-3.34-.85-.76-1.97-1.14-3.36-1.14h-2.04c-.8,0-1.41.07-1.84.2-.43.13-.72.38-.88.74-.16.36-.24.86-.24,1.5v18.2c0,.64.07,1.14.22,1.5s.42.61.82.76c.4.15.96.22,1.68.22h2.64c1.52,0,2.77-.45,3.76-1.34.99-.89,1.67-2.17,2.04-3.82,0-.08.08-.11.24-.08.16.03.24.08.24.16-.11.72-.2,1.59-.28,2.6-.08,1.01-.12,1.95-.12,2.8,0,.4-.2.6-.6.6ZM70.61,16.24c0-1.15-.33-1.99-.98-2.54-.65-.55-1.7-.82-3.14-.82h-5.8v-.92h5.92c1.36,0,2.36-.23,3-.7.64-.47.96-1.19.96-2.18,0-.05.07-.08.22-.08s.22.03.22.08c0,.83,0,1.47-.02,1.92-.01.45-.02.93-.02,1.44,0,.61.02,1.23.06,1.84.04.61.06,1.27.06,1.96,0,.05-.08.08-.24.08s-.24-.03-.24-.08Z"/>
        <path class="cls-1" d="M110.25,25.96c0,.05-.06.09-.18.1-.12.01-.21,0-.26-.02L90.97,3.72c-.93-1.09-1.74-1.83-2.42-2.22-.68-.39-1.35-.58-2.02-.58-.05,0-.08-.08-.08-.24s.03-.24.08-.24c.51,0,1.01.01,1.52.04.51.03.97.04,1.4.04.64,0,1.23-.01,1.76-.04.53-.03.93-.04,1.2-.04.35,0,.6.15.76.46.16.31.55.85,1.16,1.62l15.6,18.8.32,4.64ZM90.01,20.88V1.36l1.04.08v19.44c0,1.39.25,2.41.76,3.08.51.67,1.31,1,2.4,1,.05,0,.08.08.08.24s-.03.24-.08.24c-.56,0-1.13-.01-1.7-.04-.57-.03-1.22-.04-1.94-.04s-1.37.01-2.04.04c-.67.03-1.29.04-1.88.04-.05,0-.08-.08-.08-.24s.03-.24.08-.24c1.17,0,2.03-.33,2.56-1,.53-.67.8-1.69.8-3.08ZM110.25,5.04v20.92l-1-1.24V5.04c0-1.39-.25-2.42-.74-3.1-.49-.68-1.29-1.02-2.38-1.02-.05,0-.08-.08-.08-.24s.03-.24.08-.24c.56,0,1.13.02,1.72.06.59.04,1.23.06,1.92.06s1.32-.02,1.96-.06,1.24-.06,1.8-.06c.05,0,.08.08.08.24s-.03.24-.08.24c-1.12,0-1.95.34-2.48,1.02-.53.68-.8,1.71-.8,3.1Z"/>
        <path class="cls-1" d="M140.33,0c1.01,0,1.95.05,2.82.14.87.09,1.68.25,2.44.46.76.21,1.49.49,2.18.84.21.08.34.17.38.26.04.09.07.3.1.62l.52,5.04c0,.05-.07.1-.22.14-.15.04-.23,0-.26-.1-.67-2.21-1.68-3.89-3.04-5.02-1.36-1.13-3.09-1.7-5.2-1.7s-4,.49-5.6,1.48c-1.6.99-2.85,2.38-3.76,4.18-.91,1.8-1.36,3.93-1.36,6.38,0,1.81.28,3.48.84,5s1.34,2.85,2.34,3.98c1,1.13,2.16,2.01,3.48,2.62,1.32.61,2.74.92,4.26.92,2.13,0,3.86-.53,5.18-1.6,1.32-1.07,2.38-2.69,3.18-4.88.05-.08.15-.11.28-.08.13.03.2.08.2.16l-.44,4.56c-.03.32-.07.52-.14.6-.07.08-.19.17-.38.28-1.36.61-2.66,1.05-3.9,1.3-1.24.25-2.57.38-3.98.38-2.83,0-5.34-.55-7.54-1.66-2.2-1.11-3.93-2.64-5.18-4.6-1.25-1.96-1.88-4.23-1.88-6.82,0-1.92.37-3.67,1.1-5.24.73-1.57,1.77-2.93,3.1-4.08,1.33-1.15,2.89-2.03,4.66-2.64,1.77-.61,3.71-.92,5.82-.92Z"/>
        <path class="cls-1" d="M175.05,25.92c-1.92,0-3.66-.34-5.22-1.02s-2.89-1.62-4-2.82c-1.11-1.2-1.96-2.58-2.56-4.14s-.9-3.22-.9-4.98c0-2.16.42-4.05,1.26-5.68.84-1.63,1.95-2.98,3.34-4.06,1.39-1.08,2.91-1.89,4.56-2.42,1.65-.53,3.29-.8,4.92-.8,1.97,0,3.74.35,5.3,1.06s2.89,1.66,3.98,2.86c1.09,1.2,1.93,2.56,2.5,4.08.57,1.52.86,3.08.86,4.68,0,1.87-.37,3.6-1.12,5.2-.75,1.6-1.77,3-3.06,4.2-1.29,1.2-2.79,2.14-4.48,2.82-1.69.68-3.49,1.02-5.38,1.02ZM176.45,25.04c1.68,0,3.21-.43,4.58-1.3,1.37-.87,2.45-2.13,3.24-3.8.79-1.67,1.18-3.71,1.18-6.14s-.43-4.69-1.3-6.62c-.87-1.93-2.09-3.45-3.68-4.56-1.59-1.11-3.47-1.66-5.66-1.66-2.8,0-4.97.95-6.5,2.84-1.53,1.89-2.3,4.48-2.3,7.76,0,1.89.25,3.66.74,5.3.49,1.64,1.21,3.07,2.14,4.3.93,1.23,2.04,2.18,3.32,2.86,1.28.68,2.69,1.02,4.24,1.02Z"/>
        <path class="cls-1" d="M206.57,4.92c0,1.07.27,1.99.8,2.76.53.77,1.23,1.46,2.08,2.06.85.6,1.76,1.19,2.72,1.78.99.59,1.94,1.21,2.86,1.88.92.67,1.68,1.45,2.28,2.34.6.89.9,1.98.9,3.26s-.34,2.48-1.02,3.52c-.68,1.04-1.64,1.87-2.88,2.48s-2.73.92-4.46.92c-.69,0-1.39-.06-2.1-.18-.71-.12-1.38-.29-2.02-.5-.64-.21-1.23-.48-1.76-.8-.11-.08-.19-.17-.26-.28-.07-.11-.1-.27-.1-.48l-.4-5.72c-.03-.13.03-.21.18-.22.15-.01.23.03.26.14.24.83.56,1.67.96,2.52.4.85.88,1.63,1.44,2.34.56.71,1.23,1.29,2.02,1.74.79.45,1.7.68,2.74.68.72,0,1.42-.13,2.1-.4.68-.27,1.23-.71,1.66-1.34.43-.63.64-1.5.64-2.62,0-1.28-.28-2.36-.84-3.24s-1.28-1.64-2.16-2.28c-.88-.64-1.81-1.25-2.8-1.84-.93-.59-1.83-1.2-2.7-1.84-.87-.64-1.57-1.38-2.1-2.22-.53-.84-.8-1.86-.8-3.06,0-1.44.38-2.63,1.14-3.56.76-.93,1.73-1.63,2.92-2.08,1.19-.45,2.41-.68,3.66-.68.83,0,1.67.08,2.52.24.85.16,1.62.39,2.32.68.24.11.4.22.48.34.08.12.12.25.12.38l.2,5c0,.08-.07.13-.2.16-.13.03-.23-.01-.28-.12-.08-.45-.25-1.02-.52-1.7s-.63-1.35-1.08-2c-.45-.65-1.03-1.2-1.74-1.64s-1.57-.66-2.58-.66c-.93,0-1.71.19-2.32.58-.61.39-1.08.89-1.4,1.52-.32.63-.48,1.34-.48,2.14Z"/>
        <path class="cls-1" d="M234.49,20.88l.4-19.52,1,.08-.4,19.44c-.03,1.39.22,2.41.74,3.08.52.67,1.39,1,2.62,1,.08,0,.12.08.12.24s-.04.24-.12.24c-.59,0-1.19-.01-1.8-.04-.61-.03-1.31-.04-2.08-.04-.72,0-1.4.01-2.04.04-.64.03-1.24.04-1.8.04-.05,0-.08-.08-.08-.24s.03-.24.08-.24c1.12,0,1.95-.33,2.5-1,.55-.67.83-1.69.86-3.08ZM262.49,24.96c.05,0,.08.08.08.24s-.03.24-.08.24c-.67,0-1.41-.01-2.24-.04-.83-.03-1.71-.04-2.64-.04-.88,0-1.71.01-2.48.04-.77.03-1.47.04-2.08.04-.08,0-.12-.08-.12-.24s.04-.24.12-.24c1.31,0,2.15-.17,2.52-.52.37-.35.52-1.09.44-2.24l-.8-18.84,1.56-2.24-10.36,24.04c-.03.11-.13.16-.3.16s-.29-.05-.34-.16l-10.44-21.4c-.93-1.89-2.24-2.84-3.92-2.84-.05,0-.08-.08-.08-.24s.03-.24.08-.24c.48,0,.98.01,1.5.04.52.03.97.04,1.34.04.51,0,.97-.01,1.38-.04.41-.03.73-.04.94-.04.37,0,.67.13.88.38.21.25.53.82.96,1.7l9.08,18.44-1.48,2.56,9.64-22.08c.13-.32.3-.57.5-.74.2-.17.43-.26.7-.26.19,0,.42.01.7.04.28.03.61.04.98.04.75,0,1.37-.01,1.88-.04.51-.03,1.03-.04,1.56-.04.05,0,.08.08.08.24s-.03.24-.08.24c-1.28,0-2.21.21-2.8.62-.59.41-.87,1.17-.84,2.26l.84,18.4c.05.77.16,1.36.32,1.76s.47.67.92.8c.45.13,1.15.2,2.08.2Z"/>
        <path class="cls-1" d="M281.09,22.2c0,.77.07,1.36.22,1.76.15.4.45.67.92.8.47.13,1.17.2,2.1.2.05,0,.08.08.08.24s-.03.24-.08.24c-.67,0-1.41-.01-2.22-.04-.81-.03-1.7-.04-2.66-.04s-1.81.01-2.64.04c-.83.03-1.57.04-2.24.04-.05,0-.08-.08-.08-.24s.04-.24.12-.24c.91,0,1.6-.07,2.08-.2.48-.13.8-.4.96-.8.16-.4.24-.99.24-1.76V3.68c0-.77-.08-1.35-.24-1.74-.16-.39-.48-.65-.96-.8s-1.19-.22-2.12-.22c-.05,0-.08-.08-.08-.24s.03-.24.08-.24c.67,0,1.41.02,2.24.06.83.04,1.71.06,2.64.06s1.85-.02,2.68-.06,1.56-.06,2.2-.06c.05,0,.08.08.08.24s-.03.24-.08.24c-.93,0-1.63.08-2.08.24-.45.16-.76.44-.92.84s-.24.99-.24,1.76v18.44Z"/>
        <path class="cls-1" d="M312.17,0c1.01,0,1.95.05,2.82.14.87.09,1.68.25,2.44.46.76.21,1.49.49,2.18.84.21.08.34.17.38.26.04.09.07.3.1.62l.52,5.04c0,.05-.07.1-.22.14s-.23,0-.26-.1c-.67-2.21-1.68-3.89-3.04-5.02-1.36-1.13-3.09-1.7-5.2-1.7s-4,.49-5.6,1.48c-1.6.99-2.85,2.38-3.76,4.18-.91,1.8-1.36,3.93-1.36,6.38,0,1.81.28,3.48.84,5s1.34,2.85,2.34,3.98c1,1.13,2.16,2.01,3.48,2.62,1.32.61,2.74.92,4.26.92,2.13,0,3.86-.53,5.18-1.6,1.32-1.07,2.38-2.69,3.18-4.88.05-.08.15-.11.28-.08.13.03.2.08.2.16l-.44,4.56c-.03.32-.07.52-.14.6-.07.08-.2.17-.38.28-1.36.61-2.66,1.05-3.9,1.3-1.24.25-2.57.38-3.98.38-2.83,0-5.34-.55-7.54-1.66-2.2-1.11-3.93-2.64-5.18-4.6-1.25-1.96-1.88-4.23-1.88-6.82,0-1.92.37-3.67,1.1-5.24.73-1.57,1.77-2.93,3.1-4.08,1.33-1.15,2.89-2.03,4.66-2.64,1.77-.61,3.71-.92,5.82-.92Z"/>
      </g>
    </g>
  </g>
</svg>